<?xml version="1.0" encoding="UTF-8"?>
<svg id="Ebene_1" xmlns="http://www.w3.org/2000/svg" version="1.1" viewBox="105 0 525 196.4">
  <!-- Generator: Adobe Illustrator 30.0.0, SVG Export Plug-In . SVG Version: 2.1.1 Build 123)  -->
  <defs>
    <style>
      .st0 {
        fill: #243e3a;
        fill-rule: evenodd;
      }
    </style>
  </defs>
  <path class="st0" d="M191.3,196.3c-37.8,0-66.9-11.7-80.7-45.5l29.1-15.1c8.2,20.4,29.6,29.4,52.1,29.4s42.6-7.7,42.6-27.8-18.3-24.6-42.9-27.2c-37.8-4.5-72.7-14.5-72.7-56.1C118.8,15.9,156.4.3,190.5,0,219.3,0,249.2,8.2,263.2,36.8l-27.7,14.3c-6.4-10.6-23.8-20.6-43.9-20.6s-38.3,10.9-38.3,24.6,19,20.6,41.3,23.3c38.6,4.8,74.6,14.8,74.6,59-.1,41.2-36.6,58.9-77.9,58.9h0Z"/>
  <path class="st0" d="M409.4,137.3c0-17.5-18.2-24.6-42.9-27.2-37.8-4.5-72.7-14.5-72.7-56.1S331.4.3,365.5,0C394.3,0,424.3,8.2,438.3,36.8l-27.8,14.3c-6.4-10.6-23.8-20.6-43.9-20.6s-38.3,10.9-38.3,24.6,19,20.6,41.3,23.3c38.7,4.8,74.6,14.8,74.6,59s-36.5,59-77.8,59-66.9-11.7-80.7-45.5l29.1-15.1c8.2,20.4,29.6,29.4,52.1,29.4,21.8-.1,42.5-7.8,42.5-27.9h0Z"/>
  <polygon class="st0" points="626.3 65.6 572.1 137.8 565.3 137.8 506.3 57.2 506.3 191.8 471.3 191.8 471.3 6.6 511.6 6.6 569.5 86.3 626.3 8.1 626.3 65.6"/>
</svg>